<svg xmlns="http://www.w3.org/2000/svg" xmlns:svg="http://www.w3.org/2000/svg" id="svg2985" width="1920" height="1080" version="1.1"><metadata id="metadata2990"/><g id="layer1"><path id="path2993" fill="none" stroke="#a9a28d" stroke-dasharray="none" stroke-dashoffset="0" stroke-linecap="round" stroke-linejoin="round" stroke-miterlimit="4" stroke-opacity="1" stroke-width="11.442" d="m 583.33334,176.66667 a 210,210 0 1 1 -420,0 210,210 0 1 1 420,0 z" color="#000" display="inline" enable-background="accumulate" opacity=".66" overflow="visible" transform="matrix(1.398338,0,0,1.398338,424.85723,66.369424)" visibility="visible" style="marker:none"/><path id="path2993-4" fill="none" stroke="#a9a28d" stroke-dasharray="none" stroke-dashoffset="0" stroke-linecap="round" stroke-linejoin="round" stroke-miterlimit="4" stroke-opacity="1" stroke-width="11.442" d="m 583.33334,176.66667 a 210,210 0 1 1 -420,0 210,210 0 1 1 420,0 z" color="#000" display="inline" enable-background="accumulate" opacity=".66" overflow="visible" transform="matrix(1.398338,0,0,1.398338,671.3217,524.17715)" visibility="visible" style="marker:none"/><path id="path2993-1" fill="none" stroke="#a9a28d" stroke-dasharray="none" stroke-dashoffset="0" stroke-linecap="round" stroke-linejoin="round" stroke-miterlimit="4" stroke-opacity="1" stroke-width="11.442" d="m 583.33334,176.66667 a 210,210 0 1 1 -420,0 210,210 0 1 1 420,0 z" color="#000" display="inline" enable-background="accumulate" opacity=".66" overflow="visible" transform="matrix(1.398338,0,0,1.398338,182.74331,517.23053)" visibility="visible" style="marker:none"/><path id="path2993-4-3" fill="#96ca74" stroke="#56aa1c" stroke-dasharray="none" stroke-dashoffset="0" stroke-linecap="round" stroke-linejoin="round" stroke-miterlimit="4" stroke-opacity="1" stroke-width="16" d="M 951.40625 604.8125 C 918.81704 652.11161 899.71875 709.43589 899.71875 771.21875 C 899.71875 830.01049 916.99569 884.76682 946.75 930.6875 C 979.34259 883.38685 998.4375 826.06762 998.4375 764.28125 C 998.4375 705.48951 981.16056 650.73318 951.40625 604.8125 z" color="#000" display="inline" enable-background="accumulate" opacity=".66" overflow="visible" visibility="visible" style="marker:none"/><path id="path2993-0" fill="#a4b8c2" stroke="#7d9aaa" stroke-dasharray="none" stroke-dashoffset="0" stroke-linecap="round" stroke-linejoin="round" stroke-miterlimit="4" stroke-opacity="1" stroke-width="16" d="M 704.78125 470.625 C 702.80223 470.625 700.8447 470.64853 698.875 470.6875 C 750.96681 552.66214 842.58801 607.0625 946.90625 607.0625 C 948.88527 607.0625 950.8428 607.03897 952.8125 607 C 900.72069 525.02536 809.09949 470.625 704.78125 470.625 z" color="#000" display="inline" enable-background="accumulate" opacity=".66" overflow="visible" visibility="visible" style="marker:none"/><path id="path2993-7" fill="#d08f97" stroke="#a32638" stroke-dasharray="none" stroke-dashoffset="0" stroke-linecap="round" stroke-linejoin="round" stroke-miterlimit="4" stroke-opacity="1" stroke-width="16" d="M 1190.4062 477.59375 C 1090.2696 478.58547 1002.1304 529.683 949.875 607.03125 C 1050.0066 606.03549 1138.1529 554.93884 1190.4062 477.59375 z" color="#000" display="inline" enable-background="accumulate" opacity=".66" overflow="visible" visibility="visible" style="marker:none"/><text id="text3933" x="516.188" y="802.513" fill="#000" fill-opacity="1" stroke="none" font-family="Arial" font-size="40" font-stretch="normal" font-style="normal" font-variant="normal" font-weight="bold" letter-spacing="0" word-spacing="0" xml:space="preserve" style="line-height:125%;-inkscape-font-specification:Sans Bold"><tspan id="tspan3935" x="516.188" y="802.513" font-size="50">Availability</tspan></text><text id="text3933-5" x="1116.177" y="771.23" fill="#000" fill-opacity="1" stroke="none" font-family="Arial" font-size="40" font-stretch="normal" font-style="normal" font-variant="normal" font-weight="bold" letter-spacing="0" word-spacing="0" xml:space="preserve" style="line-height:125%;-inkscape-font-specification:Sans Bold"><tspan id="tspan3935-8" x="1116.177" y="771.23" font-size="50">Partition</tspan><tspan id="tspan3967" x="1116.177" y="833.73" font-size="50">Tolerance</tspan></text><text id="text3933-9" x="949.873" y="281.749" fill="#000" fill-opacity="1" stroke="none" font-family="Arial" font-size="40" font-stretch="normal" font-style="normal" font-variant="normal" font-weight="bold" letter-spacing="0" text-anchor="middle" word-spacing="0" xml:space="preserve" style="text-align:center;line-height:125%;-inkscape-font-specification:Sans Bold"><tspan style="text-align:center" id="tspan3935-2" x="949.873" y="281.749" font-size="50" text-anchor="middle">Consistency</tspan></text><text id="text3969" x="831.998" y="558.509" fill="#000" fill-opacity="1" stroke="none" font-family="Arial" font-size="50" font-stretch="normal" font-style="normal" font-variant="normal" font-weight="bold" letter-spacing="0" text-anchor="middle" word-spacing="0" xml:space="preserve" style="text-align:center;line-height:125%;-inkscape-font-specification:Sans Bold"><tspan style="text-align:center" id="tspan3971" x="831.998" y="558.509" font-size="50" text-anchor="middle">CA</tspan></text><text id="text3969-9" x="952.342" y="786.223" fill="#000" fill-opacity="1" stroke="none" font-family="Arial" font-size="50" font-stretch="normal" font-style="normal" font-variant="normal" font-weight="bold" letter-spacing="0" text-anchor="middle" word-spacing="0" xml:space="preserve" style="text-align:center;line-height:125%;-inkscape-font-specification:Sans Bold"><tspan style="text-align:center" id="tspan3971-2" x="952.342" y="786.223" font-size="50" text-anchor="middle">AP</tspan></text><text id="text3969-92" x="1076.085" y="559.949" fill="#000" fill-opacity="1" stroke="none" font-family="Arial" font-size="50" font-stretch="normal" font-style="normal" font-variant="normal" font-weight="bold" letter-spacing="0" text-anchor="middle" word-spacing="0" xml:space="preserve" style="text-align:center;line-height:125%;-inkscape-font-specification:Sans Bold"><tspan style="text-align:center" id="tspan3971-4" x="1076.085" y="559.949" font-size="50" text-anchor="middle">CP</tspan></text></g></svg>